<?xml version="1.0" encoding="UTF-8"?>
<svg width="351.24" height="380.74" preserveAspectRatio="xMinYMin meet" version="1.1" viewBox="0 0 71.934 77.924" xmlns="http://www.w3.org/2000/svg" xmlns:cc="http://creativecommons.org/ns#" xmlns:dc="http://purl.org/dc/elements/1.1/" xmlns:rdf="http://www.w3.org/1999/02/22-rdf-syntax-ns#">
 <metadata>
  <rdf:RDF>
   <cc:Work rdf:about="">
    <dc:format>image/svg+xml</dc:format>
    <dc:type rdf:resource="http://purl.org/dc/dcmitype/StillImage"/>
    <dc:title/>
   </cc:Work>
  </rdf:RDF>
 </metadata>
 <g transform="translate(-.131 -.046)" fill="#47848f">
  <path d="m25.51 16.806c-10.19-1.856-18.247 0.087-21.458 5.648-2.396 4.15-1.712 9.653 1.66 15.535 0.69333 1.2093 2.5073 0.16933 1.814-1.04-3.038-5.298-3.63-10.047-1.664-13.45 2.667-4.62 9.853-6.353 19.273-4.637 1.3885 0.27528 1.7705-1.8247 0.374-2.056zm-14.499 28.332c4.12 4.528 9.473 8.775 15.578 12.3 14.781 8.534 30.517 10.815 38.272 5.527 1.137-0.78735-0.02841-2.4973-1.177-1.727-6.941 4.733-21.889 2.566-36.05-5.61-5.923-3.42-11.106-7.532-15.077-11.896-0.93567-1.063-2.5156 0.37393-1.546 1.406z"/>
  <path d="m62.388 43.867c6.672-7.882 9.002-15.81 5.798-21.36-2.358-4.084-7.343-6.24-13.967-6.326a1.0451 1.0451 0 0 0-0.028 2.09c5.958 0.077 10.253 1.935 12.185 5.281 2.661 4.61 0.584 11.68-5.583 18.965a1.045 1.045 0 1 0 1.595 1.35zm-17.147-26.713c-6.033 1.293-12.454 3.82-18.62 7.38-15.26 8.81-25.214 21.8-23.831 31.22a1.045 1.045 0 1 0 2.067-0.304c-1.227-8.363 8.208-20.677 22.808-29.106 5.982-3.454 12.2-5.9 18.014-7.147a1.045 1.045 0 0 0-0.438-2.043z"/>
  <path d="m20.52 62.284c3.49 9.74 9.196 15.738 15.614 15.738 4.68 0 9.01-3.19 12.387-8.807a1.045 1.045 0 1 0-1.79-1.077c-3.035 5.048-6.763 7.795-10.597 7.795-5.33 0-10.421-5.35-13.646-14.354a1.045 1.045 0 1 0-1.967 0.705zm31.866-1.906c1.806-5.77 2.775-12.428 2.775-19.366 0-17.31-6.058-32.233-14.688-36.065a1.045 1.045 0 0 0-0.848 1.91c7.697 3.418 13.447 17.58 13.447 34.155 0 6.73-0.94 13.178-2.68 18.742a1.045 1.045 0 1 0 1.994 0.624zm19.679-1.023a5.001 5.001 0 1 0-10.002 0 5.001 5.001 0 0 0 10.002 0zm-2.09 0a2.911 2.911 0 1 1-5.822 0 2.911 2.911 0 0 1 5.822 0zm-64.843 5.001a5.001 5.001 0 1 0 0-10.002 5.001 5.001 0 0 0 0 10.002zm0-2.09a2.9115 2.9115 0 1 1 0-5.823 2.9115 2.9115 0 0 1 0 5.823z"/>
  <path d="m36.134 10.048a5.001 5.001 0 1 0 0-10.002 5.001 5.001 0 0 0 0 10.002zm0-2.09a2.911 2.911 0 1 1 0-5.822 2.9115 2.9115 0 0 1 0 5.823zm0.764 36.592a3.6191 3.6191 0 1 1-1.528-7.075 3.619 3.619 0 0 1 1.528 7.074z"/>
 </g>
</svg>
