<?xml version="1.0" encoding="utf-8"?>
<!-- Generator: Adobe Illustrator 23.0.0, SVG Export Plug-In . SVG Version: 6.00 Build 0)  -->
<svg version="1.1" id="Layer_1" xmlns="http://www.w3.org/2000/svg" xmlns:xlink="http://www.w3.org/1999/xlink" x="0px" y="0px"
	 viewBox="0 0 537 706" style="enable-background:new 0 0 537 706;" xml:space="preserve">
<style type="text/css">
	.st0{clip-path:url(#SVGID_2_);}
	.st1{fill:#B57EE5;}
	.st2{fill:#F1618C;}
	.st3{fill:#FFFFFF;}
</style>
<title>storybook-logo-final</title>
<desc>Created using Figma</desc>
<g transform="matrix(2 0 0 2 -4322 -506)">
	<g>
		<defs>
			<rect id="SVGID_1_" x="1536" y="76.6" width="2500" height="705.9"/>
		</defs>
		<clipPath id="SVGID_2_">
			<use xlink:href="#SVGID_1_"  style="overflow:visible;"/>
		</clipPath>
		<g class="st0">
			<g transform="translate(2166 275)">
				<path id="b" class="st1" d="M2192.9,581.5L2178.2,280h-11l11,301.5H2192.9z"/>
			</g>
			<g transform="translate(2180 261)">
				<path id="c" class="st2" d="M2199,581.5L2184.3,280l240.2-17.2v329.7L2199,581.5z"/>
			</g>
			<g transform="translate(2326 261.5)">
				<path id="d" class="st3" d="M2363.2,307l3.1-41.1l28.8-2.5V307l-14.5-13.1L2363.2,307z"/>
			</g>
			<g transform="translate(2220 301)">
				<path id="k" class="st3" d="M2324.8,391.9l47.4-1.2c1.2-45.9-22.6-68.5-64.1-68.5c-41.5,0-64.7,23.5-64.7,58.8
					c0,61.5,79.4,62.6,79.4,96.2c0,9.4-4.4,15-14.1,15c-12.6,0-17.6-8.2-17.1-31.2h-49.7c-3.8,56.8,29.4,69.7,67.4,69.7
					c36.8,0,65.6-17.1,65.6-54.1c0-65.9-80.6-64.1-80.6-96.8c0-13.2,9.4-15,15-15C2315.1,364.8,2325.7,367.1,2324.8,391.9
					L2324.8,391.9z"/>
			</g>
		</g>
	</g>
</g>
</svg>
