<svg xmlns="http://www.w3.org/2000/svg" viewBox="0 0 476.89 54.61"><title>sr_2</title><path d="M20.36,47.12A20.41,20.41,0,0,1,8.63,43.47L3.07,43.4.49,47C4.74,51.52,11.14,54.61,20,54.61c10.7,0,16.39-4.67,18-10.79l-9-.11C27.68,45.63,24.94,47.12,20.36,47.12Z"/><polygon points="69.68 53.75 77.24 53.75 77.24 44.28 69.68 44.19 69.68 53.75"/><polygon points="46.14 53.75 53.7 53.75 53.7 44 46.14 43.91 46.14 53.75"/><path d="M108.27,45.83c-1.73,2.37-5,3.6-8.28,3.6-3.76,0-6.67-1.93-7.29-5L85,44.37c.67,6.85,6.67,10.24,12,10.24A14.64,14.64,0,0,0,108.27,50v3.75h7.56v-9l-7.56-.09Z"/><polygon points="155.94 53.75 163.86 53.75 166.47 45.34 153.23 45.18 155.94 53.75"/><polygon points="131.89 53.75 139.81 53.75 142.56 45.05 129.14 44.9 131.89 53.75"/><polygon points="203.38 53.75 210.94 53.75 210.94 45.86 203.38 45.77 203.38 53.75"/><polygon points="179.91 53.75 187.47 53.75 187.47 45.59 179.91 45.5 179.91 53.75"/><polygon points="266.89 53.75 276.61 53.75 272.15 46.59 262.56 46.47 266.89 53.75"/><polygon points="239.45 53.75 247.88 53.75 247.88 46.3 239.45 46.2 239.45 53.75"/><polygon points="284.45 53.75 292.01 53.75 292.01 46.82 284.45 46.73 284.45 53.75"/><polygon points="308 53.75 315.56 53.75 315.56 47.1 308 47.01 308 53.75"/><path d="M341,47.92a9.86,9.86,0,0,1-3.33-.56l-11.29-.13A17.1,17.1,0,0,0,341,54.61c6.45,0,11.42-2.77,14.48-7l-11.36-.13A10.31,10.31,0,0,1,341,47.92Z"/><path d="M382.08,47.92c-.23,0-.46,0-.69,0l-14.07-.17a14.32,14.32,0,0,0,12.6,6.9A14.11,14.11,0,0,0,391.09,49v4.75h7.56V48.08l-16.23-.19C382.31,47.9,382.2,47.92,382.08,47.92Z"/><path d="M425.29,48.42c-.23,0-.45,0-.67,0l-14.39-.17a17.94,17.94,0,0,0,14.26,6.39c5.55,0,10.66-1.73,14.12-5l-.72-1-12.28-.15Z"/><path d="M445.87,48.64l-.36.57c3.6,3.53,9,5.4,14.91,5.4,6.47,0,10.91-2.24,13-5.64Z"/><path d="M257.4,8.14H245.88V23.4H257.4c4.75,0,8.21-3,8.21-7.63S262.15,8.14,257.4,8.14Z" style="fill:none"/><path d="M19.23,19.87c-5.69-1.44-10.59-2.66-10.59-6.41s3.17-6,8.14-6A19.52,19.52,0,0,1,30.67,13L35.5,6.7C31,2.38,25,0,17.5,0,7,0,0,6.12,0,14A11.94,11.94,0,0,0,1.7,20.5L23.33,21C22,20.57,20.57,20.22,19.23,19.87Z"/><path d="M60.63,19.8c2.48,0,4.46.57,5.68,2.12l8.81.19c-.67-5.84-4.36-9-11.11-9A16.64,16.64,0,0,0,51.7,18.72V.72H44.14V21.43l10.62.23A10.79,10.79,0,0,1,60.63,19.8Z"/><path d="M98.14,19.59c3.31,0,5.91,1.15,7.21,3.18l8.25.18c-1.22-7.24-7.35-9.85-14.24-9.85a20.74,20.74,0,0,0-14.62,5.62l2.15,3.65,2.78.06A13.77,13.77,0,0,1,98.14,19.59Z"/><polygon points="172.66 13.97 164.81 13.97 161.89 24.01 169.49 24.17 172.66 13.97"/><polygon points="145.87 23.26 146 23.66 152.41 23.8 149.19 13.97 142.56 13.97 139.43 23.52 145.75 23.66 145.87 23.26"/><polygon points="126.94 13.97 119.09 13.97 121.93 23.13 129.65 23.3 126.94 13.97"/><path d="M185.47,24.48a11.47,11.47,0,0,1,8.93-4.68c3.63,0,6.15,1.32,6.81,5.07L209,25v-.77c0-7.13-3.75-11.17-11.24-11.17a16.49,16.49,0,0,0-12.24,5.62V14h-7.56V24.36l7.56.16Z"/><path d="M274.25,15.77c0-8.86-6.19-15-15.7-15h-21.1V25.66l32.59.71A14.09,14.09,0,0,0,274.25,15.77ZM257.4,23.4H245.88V8.14H257.4c4.75,0,8.21,3,8.21,7.63S262.15,23.4,257.4,23.4Z"/><path d="M290,24.48a11.72,11.72,0,0,1,8.93-4.68c4.25,0,7.06,1.66,7.06,7.06v.3l7.56.16v-3.2c0-7.13-3.75-11-11.23-11A16.66,16.66,0,0,0,290,18.72V.72h-7.56V26.64l7.56.17Z"/><path d="M339,19.8c5.31,0,8.68,3.62,9.73,8.29l8,.18C355.49,19.75,349,13.1,339,13.1c-9.56,0-16,6.25-17.5,14.4l8,.17C330.65,23.21,334,19.8,339,19.8Z"/><path d="M380.08,19.8a11.44,11.44,0,0,1,9,4.68V29l7.56.16V.72h-7.56V18.79a14,14,0,0,0-11.17-5.69c-8.16,0-14.24,5.83-15.3,15.3l7.92.17C371.46,23.33,375,19.8,380.08,19.8Z"/><path d="M421.92,13.1c-9.6,0-16.63,7.08-17.54,16.21l34.6.76C438.22,20.15,431.72,13.1,421.92,13.1Zm-9.8,15.41c.36-4.24,3.32-9.21,9.8-9.21a9.3,9.3,0,0,1,9.79,9.21Z"/><path d="M459.43,27.58c-4.11-.94-7.56-1.87-7.56-4.54,0-2.45,2.52-3.89,6.48-3.89a14,14,0,0,1,10.29,4.18L471.81,18a19.87,19.87,0,0,0-13.53-4.9c-8.79,0-13.69,4.9-13.69,10.59a8.4,8.4,0,0,0,2.71,6.56l21.29.46C466,29,462.52,28.24,459.43,27.58Z"/><path d="M384.08,44.92c.12,0,.23,0,.34,0h-1C383.62,44.9,383.85,44.92,384.08,44.92Z" style="fill:none"/><polygon points="149.75 25.66 150 25.66 149.87 25.26 149.75 25.66" style="fill:none"/><path d="M427.61,45.4h-1c.22,0,.44,0,.67,0Z" style="fill:none"/><path d="M27.33,23,5.7,22.5c3,4.86,9.56,6.5,15.37,7.94S32,33.25,32,37.57a5.48,5.48,0,0,1-1,3.14l9,.11a15.49,15.49,0,0,0,.53-4C40.58,28.11,34.07,25,27.33,23Z"/><path d="M7.17,37.5l-2.1,2.9,5.56.07A22.07,22.07,0,0,1,7.17,37.5Z"/><path d="M79.12,24.11l-8.81-.19a7.68,7.68,0,0,1,1.37,4.94V41.19l7.56.09V26.12A18.41,18.41,0,0,0,79.12,24.11Z"/><path d="M58.76,23.66l-10.62-.23V40.91L55.7,41V26.48A12.48,12.48,0,0,1,58.76,23.66Z"/><path d="M117.6,25l-8.25-.18a6,6,0,0,1,.92,3.3v5.18c-2.52-2.95-6.55-4.46-11.23-4.46-5.69,0-12.1,3.31-12.1,11.3,0,.44,0,.87.07,1.28l7.69.09a6.08,6.08,0,0,1-.12-1.22c0-3.82,3.16-6.27,7.41-6.27,3.31,0,6.55,1.22,8.28,3.6v4.08l7.56.09v-14A17,17,0,0,0,117.6,25Z"/><path d="M93.67,24.43l-2.78-.06,1,1.61A17.29,17.29,0,0,1,93.67,24.43Z"/><polygon points="165.89 26.01 161.47 41.24 156.41 25.8 150 25.66 155.23 42.18 168.47 42.34 173.49 26.17 165.89 26.01"/><polygon points="143.43 25.52 138.28 41.24 133.65 25.3 125.93 25.13 131.14 41.9 144.56 42.05 149.75 25.66 143.43 25.52"/><path d="M205.21,26.87a12.51,12.51,0,0,1,.17,2.13V42.77l7.57.09V27Z"/><polygon points="181.91 26.36 181.91 42.5 189.47 42.59 189.47 26.52 181.91 26.36"/><path d="M274,28.37l-32.59-.71V43.2l8.43.1V32.82h8.35l6.33,10.65,9.59.12-7.28-11.71A13.55,13.55,0,0,0,274,28.37Z"/><polygon points="310 29.16 310 44.01 317.56 44.1 317.56 29.32 310 29.16"/><polygon points="286.45 28.64 286.45 43.73 294.01 43.82 294.01 28.81 286.45 28.64"/><path d="M333,33.32a14.6,14.6,0,0,1,.46-3.65l-8-.17a20.88,20.88,0,0,0-.35,3.82,19.31,19.31,0,0,0,3.23,10.91l11.29.13C335.4,42.84,333,38.34,333,33.32Z"/><path d="M360.74,30.27l-8-.18a14.94,14.94,0,0,1,.36,3.23c0,5.12-2.47,9.68-7,11.12l11.36.13A19.14,19.14,0,0,0,361,33.32,21.89,21.89,0,0,0,360.74,30.27Z"/><path d="M393.09,31v9.33a11.37,11.37,0,0,1-8.67,4.58l16.23.19V31.14Z"/><path d="M374.29,33.39a16.08,16.08,0,0,1,.25-2.82l-7.92-.17a28.6,28.6,0,0,0-.18,3,21.3,21.3,0,0,0,2.88,11.32l14.07.17C377.82,44.52,374.29,39.83,374.29,33.39Z"/><path d="M427.61,45.4l12.28.15-2.74-3.95A14.66,14.66,0,0,1,427.61,45.4Z"/><path d="M416.2,35.84h26.85V34c0-.67,0-1.33-.07-2l-34.6-.76a19.05,19.05,0,0,0-.1,2,18.54,18.54,0,0,0,4,11.9l14.39.17A10.45,10.45,0,0,1,416.2,35.84Z"/><path d="M476.89,40.81a9,9,0,0,0-4.3-8.1l-21.29-.46c2.62,2.39,6.72,3.3,10.4,4.1,4.25.93,7.92,2,7.92,5,0,2.59-2.3,4.25-6.84,4.25A18,18,0,0,1,451,40.74l-3.1,4.9,27.58.33A9.62,9.62,0,0,0,476.89,40.81Z"/></svg>