<svg xmlns="http://www.w3.org/2000/svg" viewBox="0 0 477.94 51.61"><title>Asset 1</title><path d="M23.41,44.12A20.52,20.52,0,0,1,16,42.73L4,43.34,3.54,44c4.24,4.54,10.65,7.63,19.51,7.63,10.31,0,16-4.33,17.85-10.13l-10,.5C29.34,43.25,26.91,44.12,23.41,44.12Z"/><polygon points="72.73 50.75 80.29 50.75 80.29 39.49 72.73 39.88 72.73 50.75"/><polygon points="49.18 50.75 56.74 50.75 56.74 40.68 49.18 41.06 49.18 50.75"/><path d="M111.32,42.83c-1.73,2.37-5,3.6-8.28,3.6-4.25,0-7.42-2.45-7.42-6.19a6.29,6.29,0,0,1,.19-1.53L88,39.1c0,.33-.05.65-.05,1,0,7.71,6.41,11.52,12.1,11.52A14.64,14.64,0,0,0,111.32,47v3.75h7.56V37.55l-7.56.38Z"/><polygon points="162.51 41.24 160.62 35.45 154.25 35.77 158.99 50.75 166.91 50.75 171.83 34.89 164.25 35.27 162.51 41.24"/><polygon points="139.33 41.24 137.97 36.59 130.65 36.96 134.94 50.75 142.85 50.75 147.49 36.11 140.9 36.44 139.33 41.24"/><polygon points="182.96 50.75 190.52 50.75 190.52 33.95 182.96 34.33 182.96 50.75"/><polygon points="206.43 50.75 213.99 50.75 213.99 32.76 206.43 33.14 206.43 50.75"/><path d="M242.5,50.75h8.43V32.82h8.35l10.65,17.93h9.73L267.92,31.88a13.86,13.86,0,0,0,5.4-2.1L242.5,31.33Z"/><polygon points="287.5 50.75 295.06 50.75 295.06 28.68 287.5 29.06 287.5 50.75"/><path d="M311.05,28.86V50.75h7.56V27.5l-7.6.38C311,28.19,311.05,28.52,311.05,28.86Z"/><path d="M354.17,33.32c0,6.2-3.6,11.6-10.08,11.6s-10-5.4-10-11.6a13.48,13.48,0,0,1,1.69-6.69l-8.54.43a20.17,20.17,0,0,0-1,6.26c0,10,6.85,18.29,17.86,18.29,11.16,0,17.93-8.28,17.93-18.29a20,20,0,0,0-1.61-7.93l-8.45.43A13,13,0,0,1,354.17,33.32Z"/><path d="M394.13,26.48V40.31a11.37,11.37,0,0,1-9,4.61c-6,0-9.79-4.83-9.79-11.53a12.51,12.51,0,0,1,3.19-8.91L369,25a23.14,23.14,0,0,0-1.48,8.43c0,11.45,6.55,18.22,15.48,18.22A14.08,14.08,0,0,0,394.13,46v4.75h7.56V23.31l-10.27.52A9.79,9.79,0,0,1,394.13,26.48Z"/><path d="M436.76,30.51H417.17a10,10,0,0,1,5.34-8.24l-10.07.5a19,19,0,0,0-3.12,10.55c0,11,7.78,18.29,18.22,18.29,5.54,0,10.66-1.73,14.11-5l-3.45-5a14.72,14.72,0,0,1-9.87,3.82c-6.55,0-10.51-4.32-11.09-9.58H444.1V34a20.58,20.58,0,0,0-3.93-12.66l-9.61.48A9.31,9.31,0,0,1,436.76,30.51Z"/><path d="M464.47,29.58c-4.1-.94-7.56-1.87-7.56-4.54,0-2.45,2.52-3.89,6.48-3.89a14,14,0,0,1,10.3,4.18L476.86,20c-.17-.15-.37-.29-.55-.44L451,20.83a9.41,9.41,0,0,0-1.34,4.86c0,7.78,7.13,9.36,13.11,10.66,4.24.93,7.92,2,7.92,5,0,2.59-2.31,4.25-6.84,4.25A18,18,0,0,1,452,40.74l-3.46,5.47c3.6,3.53,9,5.4,14.91,5.4,9.36,0,14.47-4.68,14.47-10.8C477.94,32.6,470.52,30.88,464.47,29.58Z"/><path d="M258.45,8.14H246.93V23.4h11.52c4.75,0,8.2-3,8.2-7.63S263.2,8.14,258.45,8.14Z" style="fill:none"/><path d="M4.22,35.5,0,41.34l12-.61A21.06,21.06,0,0,1,4.22,35.5Z"/><path d="M20.27,19.87c-5.69-1.44-10.58-2.66-10.58-6.41s3.17-6,8.13-6A19.52,19.52,0,0,1,31.72,13L36.55,6.7C32.08,2.38,26,0,18.54,0,8,0,1.05,6.12,1.05,14c0,10.15,9.21,12.46,17.06,14.4,5.84,1.52,11,2.81,11,7.13A5.64,5.64,0,0,1,26.88,40l10-.5a15.3,15.3,0,0,0,.73-4.7C37.63,24.34,28.19,21.89,20.27,19.87Z"/><path d="M65.06,13.1a16.66,16.66,0,0,0-12.32,5.62V.72H45.18V39.06l7.56-.38V24.48a11.72,11.72,0,0,1,8.93-4.68c4.25,0,7.06,1.66,7.06,7.06v11l7.56-.39V24.12C76.29,17,72.55,13.1,65.06,13.1Z"/><path d="M100.41,13.1a20.71,20.71,0,0,0-14.62,5.62L88.89,24a14.24,14.24,0,0,1,10.29-4.39c4.83,0,8.14,2.44,8.14,6.48v5.18c-2.52-2.95-6.55-4.46-11.23-4.46-5.45,0-11.54,3-12,10.31l7.77-.39C92.54,33.78,95.39,32,99,32c3.31,0,6.55,1.23,8.28,3.6v.36l7.56-.38V25.71C114.88,16.35,108.11,13.1,100.41,13.1Z"/><polygon points="127.98 13.97 120.13 13.97 126.65 34.96 133.97 34.59 127.98 13.97"/><polygon points="165.86 13.97 160.25 33.27 167.83 32.89 173.71 13.97 165.86 13.97"/><polygon points="150.23 13.97 143.61 13.97 136.9 34.44 143.49 34.11 146.92 23.26 150.25 33.77 156.62 33.45 150.23 13.97"/><path d="M198.76,13.1a16.47,16.47,0,0,0-12.24,5.62V14H179V32.33l7.56-.38V24.48a11.47,11.47,0,0,1,8.93-4.68c4.25,0,7,1.8,7,7.2v4.14l7.56-.38V24.27C210,17.14,206.25,13.1,198.76,13.1Z"/><path d="M275.3,15.77c0-8.86-6.2-15-15.7-15H238.5V29.33l30.82-1.55C272.74,25.51,275.3,21.54,275.3,15.77ZM258.45,23.4H246.93V8.14h11.52c4.75,0,8.2,3,8.2,7.63S263.2,23.4,258.45,23.4Z"/><path d="M303.37,13.1a16.64,16.64,0,0,0-12.31,5.62V.72H283.5V27.06l7.56-.38v-2.2A11.7,11.7,0,0,1,300,19.8c4,0,6.69,1.46,7,6.08l7.6-.38V24.12C314.61,17,310.86,13.1,303.37,13.1Z"/><path d="M340.09,13.1c-8.58,0-14.61,5-16.86,12l8.54-.43A9.64,9.64,0,0,1,348,23.82l8.45-.43C353.79,17.35,348.07,13.1,340.09,13.1Z"/><path d="M390.13.72V18.79A14,14,0,0,0,379,13.1c-6.46,0-11.6,3.66-14,9.86l9.56-.48a9,9,0,0,1,6.6-2.68,11.42,11.42,0,0,1,6.29,2l10.27-.52V.72Z"/><path d="M423,13.1a17.12,17.12,0,0,0-14.52,7.67l10.07-.5a10,10,0,0,1,4.45-1,11,11,0,0,1,3.6.56l9.61-.48A16.09,16.09,0,0,0,423,13.1Z"/><path d="M459.32,13.1c-6.11,0-10.33,2.38-12.34,5.73l25.33-1.27A19.92,19.92,0,0,0,459.32,13.1Z"/></svg>