<svg xmlns="http://www.w3.org/2000/svg" viewBox="0 0 476.4 49.61"><title>sr</title><path d="M19.87,42.12A20.44,20.44,0,0,1,8.14,38.47L2.58,38.4,0,42c4.25,4.54,10.66,7.63,19.51,7.63,10.71,0,16.39-4.67,18.05-10.79l-9-.11C27.19,40.63,24.45,42.12,19.87,42.12Z"/><polygon points="69.19 48.75 76.75 48.75 76.75 39.28 69.19 39.19 69.19 48.75"/><polygon points="45.65 48.75 53.21 48.75 53.21 39 45.65 38.91 45.65 48.75"/><path d="M107.79,40.83c-1.73,2.37-5,3.6-8.29,3.6-3.76,0-6.67-1.93-7.29-5l-7.69-.09c.67,6.85,6.67,10.24,12,10.24A14.68,14.68,0,0,0,107.79,45v3.75h7.56v-9l-7.56-.09Z"/><polygon points="155.45 48.75 163.37 48.75 165.98 40.34 152.74 40.18 155.45 48.75"/><polygon points="131.4 48.75 139.32 48.75 142.07 40.05 128.65 39.9 131.4 48.75"/><polygon points="202.9 48.75 210.46 48.75 210.46 40.86 202.9 40.77 202.9 48.75"/><polygon points="179.42 48.75 186.98 48.75 186.98 40.59 179.42 40.5 179.42 48.75"/><polygon points="266.4 48.75 276.12 48.75 271.67 41.59 262.08 41.47 266.4 48.75"/><polygon points="238.97 48.75 247.39 48.75 247.39 41.3 238.97 41.2 238.97 48.75"/><polygon points="283.96 48.75 291.52 48.75 291.52 41.82 283.96 41.73 283.96 48.75"/><polygon points="307.51 48.75 315.07 48.75 315.07 42.1 307.51 42.01 307.51 48.75"/><path d="M340.56,42.92a9.87,9.87,0,0,1-3.34-.56l-11.28-.13a17.09,17.09,0,0,0,14.62,7.38c6.45,0,11.42-2.77,14.47-7l-11.36-.13A10.24,10.24,0,0,1,340.56,42.92Z"/><path d="M381.6,42.92c-.24,0-.47,0-.7,0l-14.07-.17a14.32,14.32,0,0,0,12.61,6.9A14.11,14.11,0,0,0,390.6,44v4.75h7.56V43.08l-16.22-.19Z"/><path d="M424.8,43.42c-.23,0-.45,0-.67,0l-14.39-.17A17.94,17.94,0,0,0,424,49.61c5.54,0,10.65-1.73,14.11-5l-.71-1-12.29-.15Z"/><path d="M445.38,43.64l-.35.57c3.6,3.53,9,5.4,14.9,5.4,6.47,0,10.91-2.24,13-5.64Z"/><path d="M258.91,8.14H247.39V23.4h11.52c4.75,0,8.21-3,8.21-7.63S263.66,8.14,258.91,8.14Z" style="fill:none"/><path d="M20.74,19.87c-5.69-1.44-10.59-2.66-10.59-6.41s3.17-6,8.14-6A19.56,19.56,0,0,1,32.19,13L37,6.7C32.55,2.38,26.5,0,19,0,8.5,0,1.51,6.12,1.51,14a11.94,11.94,0,0,0,1.7,6.46L24.84,21C23.47,20.57,22.08,20.22,20.74,19.87Z"/><path d="M62.14,19.8c2.48,0,4.46.57,5.69,2.12l8.8.19c-.66-5.84-4.36-9-11.11-9a16.64,16.64,0,0,0-12.31,5.62V.72H45.65V21.43l10.62.23A10.79,10.79,0,0,1,62.14,19.8Z"/><path d="M99.65,19.59c3.31,0,5.91,1.15,7.22,3.18l8.24.18c-1.22-7.24-7.35-9.85-14.24-9.85a20.7,20.7,0,0,0-14.61,5.62l2.14,3.65,2.78.06A13.77,13.77,0,0,1,99.65,19.59Z"/><polygon points="174.17 13.97 166.32 13.97 163.41 24.01 171 24.17 174.17 13.97"/><polygon points="147.38 23.26 147.51 23.66 153.92 23.8 150.7 13.97 144.07 13.97 140.94 23.52 147.26 23.66 147.38 23.26"/><polygon points="128.45 13.97 120.6 13.97 123.44 23.13 131.16 23.3 128.45 13.97"/><path d="M187,24.48a11.47,11.47,0,0,1,8.93-4.68c3.63,0,6.15,1.32,6.81,5.07l7.74.17v-.77c0-7.13-3.75-11.17-11.23-11.17A16.5,16.5,0,0,0,187,18.72V14h-7.56V24.36l7.56.16Z"/><path d="M275.76,15.77c0-8.86-6.19-15-15.7-15H239V25.66l32.58.71A14.09,14.09,0,0,0,275.76,15.77ZM258.91,23.4H247.39V8.14h11.52c4.75,0,8.21,3,8.21,7.63S263.66,23.4,258.91,23.4Z"/><path d="M291.52,24.48a11.72,11.72,0,0,1,8.93-4.68c4.25,0,7.06,1.66,7.06,7.06v.3l7.56.16v-3.2c0-7.13-3.74-11-11.23-11a16.68,16.68,0,0,0-12.32,5.62V.72H284V26.64l7.56.17Z"/><path d="M340.56,19.8c5.3,0,8.67,3.62,9.72,8.29l8,.18c-1.25-8.52-7.7-15.17-17.69-15.17-9.57,0-16,6.25-17.5,14.4l7.95.17C332.16,23.21,335.47,19.8,340.56,19.8Z"/><path d="M381.6,19.8a11.43,11.43,0,0,1,9,4.68V29l7.56.16V.72H390.6V18.79a14,14,0,0,0-11.16-5.69c-8.17,0-14.25,5.83-15.3,15.3l7.91.17C373,23.33,376.49,19.8,381.6,19.8Z"/><path d="M423.43,13.1c-9.6,0-16.63,7.08-17.54,16.21l34.6.76C439.73,20.15,433.23,13.1,423.43,13.1Zm-9.79,15.41c.36-4.24,3.31-9.21,9.79-9.21a9.3,9.3,0,0,1,9.79,9.21Z"/><path d="M460.94,27.58c-4.1-.94-7.56-1.87-7.56-4.54,0-2.45,2.52-3.89,6.48-3.89a14,14,0,0,1,10.3,4.18L473.32,18a19.85,19.85,0,0,0-13.53-4.9c-8.79,0-13.68,4.9-13.68,10.59a8.39,8.39,0,0,0,2.7,6.56l21.29.46C467.47,29,464,28.24,460.94,27.58Z"/><path d="M383.6,42.92l.34,0h-1C383.13,42.9,383.36,42.92,383.6,42.92Z" style="fill:none"/><polygon points="149.26 23.66 149.51 23.66 149.38 23.26 149.26 23.66" style="fill:none"/><path d="M427.12,43.4h-1c.22,0,.44,0,.67,0Z" style="fill:none"/><path d="M26.84,21,5.21,20.5c3,4.86,9.57,6.5,15.37,7.94s10.94,2.81,10.94,7.13a5.48,5.48,0,0,1-1,3.14l9,.11a15.49,15.49,0,0,0,.53-4C40.09,26.11,33.59,23,26.84,21Z"/><path d="M6.68,35.5l-2.1,2.9,5.56.07A22.07,22.07,0,0,1,6.68,35.5Z"/><path d="M78.63,22.11l-8.8-.19a7.74,7.74,0,0,1,1.36,4.94V39.19l7.56.09V24.12A16.21,16.21,0,0,0,78.63,22.11Z"/><path d="M58.27,21.66l-10.62-.23V38.91l7.56.09V24.48A12.66,12.66,0,0,1,58.27,21.66Z"/><path d="M117.11,23l-8.24-.18a6,6,0,0,1,.92,3.3v5.18c-2.52-2.95-6.56-4.46-11.24-4.46-5.69,0-12.09,3.31-12.09,11.3,0,.44,0,.87.06,1.28l7.69.09a6.08,6.08,0,0,1-.12-1.22c0-3.82,3.17-6.27,7.41-6.27,3.32,0,6.56,1.22,8.29,3.6v4.08l7.56.09v-14A17,17,0,0,0,117.11,23Z"/><path d="M93.18,22.43l-2.78-.06L91.35,24A18.36,18.36,0,0,1,93.18,22.43Z"/><polygon points="165.41 24.01 160.98 39.24 155.92 23.8 149.51 23.66 154.74 40.18 167.98 40.34 173 24.17 165.41 24.01"/><polygon points="142.94 23.52 137.79 39.24 133.16 23.3 125.44 23.13 130.65 39.9 144.07 40.05 149.26 23.66 142.94 23.52"/><path d="M204.72,24.87A12.45,12.45,0,0,1,204.9,27V40.77l7.56.09V25Z"/><polygon points="181.42 24.36 181.42 40.5 188.98 40.59 188.98 24.52 181.42 24.36"/><path d="M273.55,26.37,241,25.66V41.2l8.42.1V30.82h8.35l6.34,10.65,9.59.12-7.29-11.71A13.55,13.55,0,0,0,273.55,26.37Z"/><polygon points="309.51 27.16 309.51 42.01 317.07 42.1 317.07 27.32 309.51 27.16"/><polygon points="285.96 26.64 285.96 41.73 293.52 41.82 293.52 26.81 285.96 26.64"/><path d="M332.55,31.32a14.6,14.6,0,0,1,.46-3.65l-7.95-.17a20.88,20.88,0,0,0-.36,3.82,19.24,19.24,0,0,0,3.24,10.91l11.28.13C334.91,40.84,332.55,36.34,332.55,31.32Z"/><path d="M360.25,28.27l-8-.18a14.34,14.34,0,0,1,.36,3.23c0,5.12-2.46,9.68-7,11.12l11.36.13a19.14,19.14,0,0,0,3.46-11.25A20.46,20.46,0,0,0,360.25,28.27Z"/><path d="M392.6,29v9.33a11.35,11.35,0,0,1-8.66,4.58l16.22.19V29.14Z"/><path d="M373.8,31.39a16.08,16.08,0,0,1,.25-2.82l-7.91-.17a26.11,26.11,0,0,0-.18,3,21.3,21.3,0,0,0,2.87,11.32l14.07.17C377.33,42.52,373.8,37.83,373.8,31.39Z"/><path d="M427.12,43.4l12.29.15-2.75-3.95A14.64,14.64,0,0,1,427.12,43.4Z"/><path d="M415.71,33.84h26.86V32c0-.67,0-1.33-.08-2l-34.6-.76c-.06.66-.1,1.33-.1,2a18.6,18.6,0,0,0,3.95,11.9l14.39.17A10.45,10.45,0,0,1,415.71,33.84Z"/><path d="M476.4,38.81a9,9,0,0,0-4.3-8.1l-21.29-.46c2.62,2.39,6.73,3.3,10.4,4.1,4.25.93,7.92,2,7.92,5,0,2.59-2.3,4.25-6.84,4.25a18,18,0,0,1-11.81-4.9l-3.1,4.9L475,44A9.7,9.7,0,0,0,476.4,38.81Z"/></svg>