<?xml version="1.0" encoding="UTF-8"?>
<svg width="627.35" height="699" version="1.1" viewBox="0 0 35.885 40" xmlns="http://www.w3.org/2000/svg" xmlns:cc="http://creativecommons.org/ns#" xmlns:dc="http://purl.org/dc/elements/1.1/" xmlns:rdf="http://www.w3.org/1999/02/22-rdf-syntax-ns#">
 <metadata>
  <rdf:RDF>
   <cc:Work rdf:about="">
    <dc:format>image/svg+xml</dc:format>
    <dc:type rdf:resource="http://purl.org/dc/dcmitype/StillImage"/>
    <dc:title>logo</dc:title>
   </cc:Work>
  </rdf:RDF>
 </metadata>
 <style>.st0{fill:#430098}</style>
 <title>logo</title>
 <g transform="translate(-.030758)">
  <g id="main" transform="translate(-25,-23)">
   <g id="nav" transform="translate(25,23)">
    <path id="logo" class="st0" d="m32.3 0h-28.7c-2 0-3.6 1.6-3.6 3.6v32.8c0 2 1.6 3.6 3.6 3.6h28.7c2 0 3.6-1.6 3.6-3.6v-32.8c0-2-1.6-3.6-3.6-3.6zm1.6 36.4c0 0.9-0.7 1.6-1.6 1.6h-28.7c-0.9 0-1.6-0.7-1.6-1.6v-32.8c0-0.9 0.7-1.6 1.6-1.6h28.7c0.9 0 1.6 0.7 1.6 1.6zm-24.9-2.4 4.5-4-4.5-4zm16.2-16.2c-0.8-0.8-2.3-1.8-4.8-1.8-2.7 0-5.5 0.7-7.5 1.4v-11.4h-3.9v17.3l2.8-1.3s4.6-2.1 8.6-2.1c2 0 2.5 1.1 2.5 2.1v12h4v-12c0-0.3 0-2.5-1.7-4.2zm-5.3-5.3h4c1.8-2.1 2.7-4.2 3-6.5h-4c-0.4 2.3-1.4 4.4-3 6.5z" fill="#430098"/>
   </g>
  </g>
 </g>
</svg>
