<svg xmlns="http://www.w3.org/2000/svg" viewBox="0 0 514.71 659.31"><title>storybook</title><path d="M63.73,656.92,34.31,54H12.25L34.31,656.92Z" transform="translate(-12.25 -19.67)" style="fill:#b57ee5"/><path d="M76,656.92,46.57,54,527,19.67V679Z" transform="translate(-12.25 -19.67)" style="fill:#f1618c"/><path d="M404.41,107.9l6.13-82.11,57.6-4.9v87l-29-26.2Z" transform="translate(-12.25 -19.67)" style="fill:#fff"/><path d="M327.55,277.71l94.7-2.36C424.61,183.59,377,138.29,294,138.29S164.61,185.35,164.61,255.94c0,122.94,158.82,125.3,158.82,192.35,0,18.83-8.82,30-28.23,30-25.3,0-35.3-16.47-34.12-62.35H161.67C154,529.47,220.49,555.35,296.37,555.35c73.53,0,131.18-34.11,131.18-108.23,0-131.77-161.18-128.24-161.18-193.53,0-26.47,18.83-30,30-30,11.77,0,32.94,4.7,31.18,54.12Z" transform="translate(-12.25 -19.67)" style="fill:#fff"/></svg>